<mxfile host="app.diagrams.net" modified="2023-08-16T09:09:22.074Z" agent="Mozilla/5.0 (Macintosh; Intel Mac OS X 10_15_7) AppleWebKit/537.36 (KHTML, like Gecko) Chrome/116.0.0.0 Safari/537.36" etag="Sv5OlVytJIyG4209V3xZ" version="21.6.8" type="github">
  <diagram name="Страница — 1" id="rRyIwpv4pDShuvJddAZr">
    <mxGraphModel dx="1080" dy="700" grid="1" gridSize="10" guides="1" tooltips="1" connect="1" arrows="1" fold="1" page="1" pageScale="1" pageWidth="827" pageHeight="1169" math="0" shadow="0">
      <root>
        <mxCell id="0" />
        <mxCell id="1" parent="0" />
        <mxCell id="NI-7Wg-epnHImh1DLLON-3" value="&lt;font style=&quot;font-size: 25px;&quot;&gt;Backend&lt;/font&gt;" style="text;html=1;strokeColor=none;fillColor=none;align=center;verticalAlign=middle;whiteSpace=wrap;rounded=0;" parent="1" vertex="1">
          <mxGeometry x="215" y="100" width="60" height="30" as="geometry" />
        </mxCell>
        <mxCell id="NI-7Wg-epnHImh1DLLON-30" value="" style="edgeStyle=orthogonalEdgeStyle;rounded=0;orthogonalLoop=1;jettySize=auto;html=1;" parent="1" source="NI-7Wg-epnHImh1DLLON-4" target="NI-7Wg-epnHImh1DLLON-29" edge="1">
          <mxGeometry relative="1" as="geometry" />
        </mxCell>
        <mxCell id="NI-7Wg-epnHImh1DLLON-37" value="" style="edgeStyle=orthogonalEdgeStyle;rounded=0;orthogonalLoop=1;jettySize=auto;html=1;" parent="1" source="NI-7Wg-epnHImh1DLLON-4" target="NI-7Wg-epnHImh1DLLON-36" edge="1">
          <mxGeometry relative="1" as="geometry" />
        </mxCell>
        <mxCell id="NI-7Wg-epnHImh1DLLON-4" value="" style="rounded=0;whiteSpace=wrap;html=1;" parent="1" vertex="1">
          <mxGeometry x="30" y="150" width="430" height="910" as="geometry" />
        </mxCell>
        <mxCell id="NI-7Wg-epnHImh1DLLON-20" style="edgeStyle=orthogonalEdgeStyle;rounded=0;orthogonalLoop=1;jettySize=auto;html=1;exitX=1;exitY=0.5;exitDx=0;exitDy=0;entryX=1;entryY=0.5;entryDx=0;entryDy=0;" parent="1" source="NI-7Wg-epnHImh1DLLON-7" target="NI-7Wg-epnHImh1DLLON-19" edge="1">
          <mxGeometry relative="1" as="geometry" />
        </mxCell>
        <mxCell id="NI-7Wg-epnHImh1DLLON-7" value="Authentification API" style="rounded=0;whiteSpace=wrap;html=1;fillColor=#d5e8d4;strokeColor=#82b366;" parent="1" vertex="1">
          <mxGeometry x="120" y="180" width="250" height="60" as="geometry" />
        </mxCell>
        <mxCell id="NI-7Wg-epnHImh1DLLON-21" style="edgeStyle=orthogonalEdgeStyle;rounded=0;orthogonalLoop=1;jettySize=auto;html=1;exitX=1;exitY=0.5;exitDx=0;exitDy=0;entryX=1;entryY=0.5;entryDx=0;entryDy=0;" parent="1" source="NI-7Wg-epnHImh1DLLON-8" target="NI-7Wg-epnHImh1DLLON-19" edge="1">
          <mxGeometry relative="1" as="geometry" />
        </mxCell>
        <mxCell id="NI-7Wg-epnHImh1DLLON-28" style="edgeStyle=orthogonalEdgeStyle;rounded=0;orthogonalLoop=1;jettySize=auto;html=1;exitX=0;exitY=0.5;exitDx=0;exitDy=0;entryX=0;entryY=0.5;entryDx=0;entryDy=0;" parent="1" source="NI-7Wg-epnHImh1DLLON-8" target="NI-7Wg-epnHImh1DLLON-23" edge="1">
          <mxGeometry relative="1" as="geometry" />
        </mxCell>
        <mxCell id="NI-7Wg-epnHImh1DLLON-8" value="User backend" style="rounded=0;whiteSpace=wrap;html=1;fillColor=#d5e8d4;strokeColor=#82b366;" parent="1" vertex="1">
          <mxGeometry x="120" y="280" width="250" height="60" as="geometry" />
        </mxCell>
        <mxCell id="NI-7Wg-epnHImh1DLLON-22" style="edgeStyle=orthogonalEdgeStyle;rounded=0;orthogonalLoop=1;jettySize=auto;html=1;exitX=1;exitY=0.5;exitDx=0;exitDy=0;entryX=1;entryY=0.5;entryDx=0;entryDy=0;" parent="1" source="NI-7Wg-epnHImh1DLLON-9" target="NI-7Wg-epnHImh1DLLON-19" edge="1">
          <mxGeometry relative="1" as="geometry" />
        </mxCell>
        <mxCell id="NI-7Wg-epnHImh1DLLON-26" style="edgeStyle=orthogonalEdgeStyle;rounded=0;orthogonalLoop=1;jettySize=auto;html=1;exitX=0;exitY=0.5;exitDx=0;exitDy=0;entryX=0;entryY=0.5;entryDx=0;entryDy=0;" parent="1" source="NI-7Wg-epnHImh1DLLON-9" target="NI-7Wg-epnHImh1DLLON-23" edge="1">
          <mxGeometry relative="1" as="geometry" />
        </mxCell>
        <mxCell id="NI-7Wg-epnHImh1DLLON-9" value="Payment backend" style="rounded=0;whiteSpace=wrap;html=1;fillColor=#d5e8d4;strokeColor=#82b366;" parent="1" vertex="1">
          <mxGeometry x="120" y="380" width="250" height="60" as="geometry" />
        </mxCell>
        <mxCell id="NI-7Wg-epnHImh1DLLON-24" style="edgeStyle=orthogonalEdgeStyle;rounded=0;orthogonalLoop=1;jettySize=auto;html=1;exitX=0;exitY=0.5;exitDx=0;exitDy=0;entryX=0;entryY=0.5;entryDx=0;entryDy=0;" parent="1" source="NI-7Wg-epnHImh1DLLON-17" target="NI-7Wg-epnHImh1DLLON-23" edge="1">
          <mxGeometry relative="1" as="geometry" />
        </mxCell>
        <mxCell id="NI-7Wg-epnHImh1DLLON-17" value="Chat backend" style="rounded=0;whiteSpace=wrap;html=1;fillColor=#d5e8d4;strokeColor=#82b366;" parent="1" vertex="1">
          <mxGeometry x="120" y="480" width="250" height="60" as="geometry" />
        </mxCell>
        <mxCell id="NI-7Wg-epnHImh1DLLON-19" value="Email sender service" style="rounded=0;whiteSpace=wrap;html=1;fillColor=#d5e8d4;strokeColor=#82b366;" parent="1" vertex="1">
          <mxGeometry x="130" y="830" width="250" height="60" as="geometry" />
        </mxCell>
        <mxCell id="NI-7Wg-epnHImh1DLLON-23" value="Notification service" style="rounded=0;whiteSpace=wrap;html=1;fillColor=#d5e8d4;strokeColor=#82b366;" parent="1" vertex="1">
          <mxGeometry x="130" y="925.5" width="250" height="60" as="geometry" />
        </mxCell>
        <mxCell id="NI-7Wg-epnHImh1DLLON-29" value="" style="whiteSpace=wrap;html=1;rounded=0;" parent="1" vertex="1">
          <mxGeometry x="690" y="120" width="470" height="385" as="geometry" />
        </mxCell>
        <mxCell id="NI-7Wg-epnHImh1DLLON-31" value="&lt;font style=&quot;font-size: 25px;&quot;&gt;Storages&lt;/font&gt;" style="text;html=1;strokeColor=none;fillColor=none;align=center;verticalAlign=middle;whiteSpace=wrap;rounded=0;" parent="1" vertex="1">
          <mxGeometry x="895" y="60" width="60" height="30" as="geometry" />
        </mxCell>
        <mxCell id="NI-7Wg-epnHImh1DLLON-32" value="SQL" style="strokeWidth=2;html=1;shape=mxgraph.flowchart.database;whiteSpace=wrap;fillColor=#e1d5e7;strokeColor=#9673a6;" parent="1" vertex="1">
          <mxGeometry x="760" y="180" width="90" height="140" as="geometry" />
        </mxCell>
        <mxCell id="NI-7Wg-epnHImh1DLLON-33" value="Sessions" style="strokeWidth=2;html=1;shape=mxgraph.flowchart.database;whiteSpace=wrap;fillColor=#e1d5e7;strokeColor=#9673a6;" parent="1" vertex="1">
          <mxGeometry x="1000" y="180" width="90" height="140" as="geometry" />
        </mxCell>
        <mxCell id="NI-7Wg-epnHImh1DLLON-34" value="- Users&lt;br&gt;&lt;div style=&quot;&quot;&gt;&lt;span style=&quot;background-color: initial;&quot;&gt;- Operations&lt;/span&gt;&lt;/div&gt;&lt;div style=&quot;&quot;&gt;&lt;span style=&quot;background-color: initial;&quot;&gt;- Deals&lt;/span&gt;&lt;/div&gt;&lt;div style=&quot;&quot;&gt;&lt;span style=&quot;background-color: initial;&quot;&gt;- Plans&lt;/span&gt;&lt;/div&gt;&lt;div style=&quot;&quot;&gt;&lt;span style=&quot;background-color: initial;&quot;&gt;- Projects&lt;/span&gt;&lt;/div&gt;&lt;div style=&quot;&quot;&gt;- Reports&lt;/div&gt;" style="text;html=1;strokeColor=none;fillColor=none;align=left;verticalAlign=top;whiteSpace=wrap;rounded=0;" parent="1" vertex="1">
          <mxGeometry x="765" y="330" width="130" height="140" as="geometry" />
        </mxCell>
        <mxCell id="NI-7Wg-epnHImh1DLLON-36" value="" style="whiteSpace=wrap;html=1;rounded=0;" parent="1" vertex="1">
          <mxGeometry x="690" y="610" width="470" height="390" as="geometry" />
        </mxCell>
        <mxCell id="NI-7Wg-epnHImh1DLLON-39" value="&lt;font style=&quot;font-size: 25px;&quot;&gt;External services&lt;br&gt;&lt;br&gt;&lt;/font&gt;" style="text;html=1;strokeColor=none;fillColor=none;align=center;verticalAlign=middle;whiteSpace=wrap;rounded=0;" parent="1" vertex="1">
          <mxGeometry x="827" y="580" width="195" height="30" as="geometry" />
        </mxCell>
        <mxCell id="NI-7Wg-epnHImh1DLLON-40" value="Consultant chat" style="rounded=0;whiteSpace=wrap;html=1;fillColor=#ffe6cc;strokeColor=#d79b00;" parent="1" vertex="1">
          <mxGeometry x="740" y="640" width="380" height="60" as="geometry" />
        </mxCell>
        <mxCell id="NI-7Wg-epnHImh1DLLON-41" value="Email delivery service" style="rounded=0;whiteSpace=wrap;html=1;fillColor=#ffe6cc;strokeColor=#d79b00;" parent="1" vertex="1">
          <mxGeometry x="735" y="740" width="380" height="60" as="geometry" />
        </mxCell>
        <mxCell id="NI-7Wg-epnHImh1DLLON-42" value="Payment" style="rounded=0;whiteSpace=wrap;html=1;fillColor=#ffe6cc;strokeColor=#d79b00;" parent="1" vertex="1">
          <mxGeometry x="734.5" y="840" width="380" height="60" as="geometry" />
        </mxCell>
        <mxCell id="Kk0jNjbQhpCBD_i2atSM-1" value="Dashboard backend" style="rounded=0;whiteSpace=wrap;html=1;fillColor=#d5e8d4;strokeColor=#82b366;" vertex="1" parent="1">
          <mxGeometry x="120" y="580" width="250" height="60" as="geometry" />
        </mxCell>
        <mxCell id="Kk0jNjbQhpCBD_i2atSM-2" value="Reports backend" style="rounded=0;whiteSpace=wrap;html=1;fillColor=#d5e8d4;strokeColor=#82b366;" vertex="1" parent="1">
          <mxGeometry x="120" y="680" width="250" height="60" as="geometry" />
        </mxCell>
        <mxCell id="Kk0jNjbQhpCBD_i2atSM-3" value="Cookies&lt;br&gt;JWT TOkens" style="text;html=1;strokeColor=none;fillColor=none;align=center;verticalAlign=middle;whiteSpace=wrap;rounded=0;" vertex="1" parent="1">
          <mxGeometry x="998" y="350" width="95" height="30" as="geometry" />
        </mxCell>
      </root>
    </mxGraphModel>
  </diagram>
</mxfile>
